<svg xmlns="http://www.w3.org/2000/svg" viewBox="0 0 512 512">
<rect width="512" height="512" rx="105" fill="#4b3324"/>
<circle cx="256" cy="245" r="175" fill="#f3ead7" stroke="#b2945b" stroke-width="18"/>
<path d="M155 195h180v102a82 82 0 0 1-82 82h-16a82 82 0 0 1-82-82z" fill="#6f4a32"/>
<path d="M335 220h30a50 50 0 0 1 0 100h-30" fill="none" stroke="#6f4a32" stroke-width="24"/>
<path d="M205 150c-20-28 20-38 0-66M258 150c-20-28 20-38 0-66M311 150c-20-28 20-38 0-66" fill="none" stroke="#556b2f" stroke-width="15" stroke-linecap="round"/>
<text x="256" y="455" text-anchor="middle" font-family="Georgia" font-weight="700" font-size="48" fill="#4b3324">1178</text>
</svg>